<?xml version="1.0" encoding="UTF-8"?>
<svg width="64px" height="64px" viewBox="0 0 76.7 64" version="1.1" xmlns="http://www.w3.org/2000/svg" xmlns:xlink="http://www.w3.org/1999/xlink">
    <title>favicon</title>
	<g id="favicon" stroke="none" stroke-width="1" fill="none" fill-rule="evenodd" style="">
	  <g id="Desktop-HD" transform="translate(-320.000000, -76.000000)" fill-rule="nonzero">
		<g id="Header" transform="translate(320.000000, 76.000000)">
		  <g id="g8" transform="translate(125.500000, 32.000000) scale(-1, 1) rotate(-180.000000) translate(-125.500000, -32.000000) ">
			<g id="g10">
			  <g id="g12-Clipped" transform="translate(-0.000000, 0.000000)">
				<g id="g12" transform="translate(-0.000000, 0.000000)">
				  <g id="g84" transform="translate(26.920965, 0.000000)" fill="#939598">
					<path id="path86" d="M 12.984 0 L 38.705 11.126 C 37.21 12.432 2.235 13.828 0 12.993 L 12.984 0 Z"></path>
				  </g>
				  <g id="g88" transform="translate(26.921164, 11.125852)" fill="#808285">
					<path id="path90" d="M 0 1.867 L 38.705 0 C 38.549 1.523 28.178 15.365 25.715 12.997 L 0 1.867 Z" style="fill: rgb(124, 126, 128);"></path>
				  </g>
				  <g id="g92" transform="translate(63.759914, 11.125652)" fill="#808285">
					<polygon id="path94" points="-0.86 20.603 1.865 -0.001 12.986 25.734 0 38.727" style="fill: rgb(124, 126, 128);"></polygon>
				  </g>
				  <g id="g96" transform="translate(52.636012, 11.125852)" fill="#939598">
					<path id="path98" d="M 1.987 17.59 L 0 12.997 L 12.989 0 L 11.964 21.264 L 11.124 38.727 C 8.196 37.329 0.156 18.793 1.987 17.59 Z"></path>
				  </g>
				  <g id="g100" transform="translate(32.034861, 28.716214)" fill="#6D6F71">
					<path id="path102" d="M 31.725 21.137 L 0 9.461 L 22.588 0 Z" style="fill: rgb(107, 109, 110);"></path>
				  </g>
				  <g id="g104" transform="translate(13.007433, 14.158357)" fill="#73AE22">
					<path id="path106" d="M 31.721 11.678 L 9.133 21.138 C 7.36 22.33 -0.472 1.583 -0.018 -0.006 L 31.721 11.678 Z" style="fill: rgb(100, 141, 38);"></path>
				  </g>
				  <g id="g108" transform="translate(-0.000000, 14.152610)" fill="#A7EF45">
					<path id="path110" d="M 0.017 13.005 L 0 12.997 L 0.01 12.987 L 12.989 0 L 12.996 0.025 L 13.402 1.071 C 14.431 2.47 13.624 37.014 11.134 38.717 L 0.017 13.005 Z" style="fill: rgb(143, 226, 17);"></path>
				  </g>
				  <g id="g112" transform="translate(11.133992, 15.195916)" fill="#8ABB48">
					<path id="path114" d="M 1.854 -1.045 L 11.006 20.1 L 12.986 24.681 C 17.409 27.816 4.17 39.22 0 37.674 L 1.854 -1.045 Z" style="fill: rgb(126, 187, 34);"></path>
				  </g>
				  <g id="g116" transform="translate(11.133743, 39.876553)" fill="#A7EF45">
					<path id="path118" d="M 12.986 0 L 38.705 11.127 C 34.75 14.954 8.905 16.452 0 12.994 L 12.986 0 Z" style="fill: rgb(143, 226, 17);"></path>
				  </g>
				  <g id="g120" transform="translate(11.133992, 51.003404)" fill="#8ABB48">
					<polygon id="path122" points="0 1.86679558 38.7041474 -2.21960849e-16 25.715347 12.9965958" style="fill: rgb(126, 187, 34);"></polygon>
				  </g>
				</g>
			  </g>
			</g>
		  </g>
		</g>
	  </g>
	</g>
</svg>