<svg width="267.8px" height="64px" viewBox="0 0 267.8 64" version="1.1" xmlns="http://www.w3.org/2000/svg">
  <defs></defs>
  <title>logo</title>
  <g id="HOME" stroke="none" stroke-width="1" fill="none" fill-rule="evenodd" style="">
    <g id="Desktop-HD" transform="translate(-320.000000, -76.000000)" fill-rule="nonzero">
      <g id="Header" transform="translate(320.000000, 76.000000)">
        <g id="g8" transform="translate(125.500000, 32.000000) scale(-1, 1) rotate(-180.000000) translate(-125.500000, -32.000000) ">
          <g id="g10" transform="translate(-0.000000, 0.000000)">
            <g id="g12-Clipped" transform="translate(-0.000000, 0.000000)">
              <g id="g12" transform="translate(-0.000000, 0.000000)">
                <g id="g18" transform="translate(84.737711, 31.514308)" fill="#96C852">
                  <path d="M12.2574872,15.3337139 C12.1535848,16.3958131 11.7674475,17.1865148 11.1005739,17.7073183 C10.4332007,18.2276219 9.43264046,18.4880237 8.09839364,18.4880237 C5.63820436,18.4880237 4.40835948,17.6448418 4.40835948,15.9584782 C4.40835948,15.3542062 4.6631202,14.8498965 5.17414022,14.4435498 C5.68516025,14.037703 6.50339173,13.6988308 7.6293342,13.4284329 C8.96308149,13.1160507 10.1199949,12.8246607 11.1005739,12.5542627 C12.0801538,12.2833649 12.9763121,11.9709828 13.7895483,11.6171164 C14.247618,11.4296871 14.6807112,11.1957753 15.0873293,10.9148813 C15.4939474,10.6334875 15.8376246,10.2846192 16.1188605,9.86827627 C16.4005959,9.45143356 16.6248852,8.95212197 16.7917285,8.36934188 C16.9585718,7.78606198 17.0419934,7.07832904 17.0419934,6.24564325 C17.0419934,5.24652026 16.8336891,4.36135427 16.4175799,3.5911449 C16.0009712,2.82093554 15.4394986,2.1701811 14.7321629,1.63938139 C14.0248273,1.10858168 13.1921094,0.702734827 12.2350084,0.42134101 C11.2779073,0.140447003 10.268855,0 9.20785159,0 C6.19018591,0 3.92181646,0.588278017 2.40324277,1.76433424 C0.88416955,2.94039046 0.082922116,4.67373639 0,6.96387223 L4.18207202,6.96387223 C4.20255278,5.90227281 4.63514647,5.0640891 5.47785496,4.4503207 C6.32056345,3.83605249 7.37657161,3.52866848 8.64587942,3.52866848 C10.0190896,3.52866848 11.0596123,3.77807437 11.766948,4.27688614 C12.4742836,4.77569792 12.828451,5.45144293 12.828451,6.30362137 C12.828451,6.63649576 12.7864904,6.94238034 12.7030687,7.22327434 C12.6196471,7.50366854 12.4577991,7.75857235 12.2180243,7.98698616 C11.9782495,8.21539997 11.6495582,8.4183234 11.23245,8.59475682 C10.8148422,8.77169006 10.2728513,8.93312914 9.60497859,9.07857426 C8.01946777,9.41094884 6.64825567,9.74832153 5.49034323,10.091692 C4.33243079,10.4345626 3.37832693,10.8604019 2.62703258,11.3697097 C1.87623776,11.8790175 1.32275761,12.4972842 0.968590258,13.2245098 C0.613923377,13.9522352 0.436589936,14.8773861 0.436589936,15.9999625 C0.436589936,16.8516411 0.592943082,17.652339 0.906148906,18.4005567 C1.21835567,19.1487743 1.69790525,19.7980293 2.34429813,20.3493213 C2.99069101,20.8996137 3.7879422,21.3364488 4.73655123,21.6583274 C5.68516025,21.9802059 6.80560788,22.1421448 8.09839364,22.1421448 C9.34921881,22.1421448 10.4746617,21.9802059 11.475222,21.6578276 C12.4757822,21.3349494 13.3359743,20.8771221 14.0552987,20.283846 C14.774623,19.6900701 15.332599,18.9718411 15.7287269,18.1286593 C16.1243553,17.2854774 16.3431498,16.353829 16.3851104,15.3337139 L12.2574872,15.3337139 Z" id="path20" style="fill: rgb(143, 226, 17);"></path>
                </g>
                <g id="g22" transform="matrix(1, 0, 0, 1, 103, 32.232437)" fill="#96C852">
                  <polygon id="path24" points="6.24263665 0 6.24263665 17.1140421 0 17.1140421 0 20.705187 16.8551689 20.705187 16.8551689 17.1140421 10.5810618 17.1140421 10.5810618 0" style="fill: rgb(143, 226, 17);"></polygon>
                </g>
                <g id="g26" transform="matrix(1, 0, 0, 1, 122.900002, 32.232586)" fill="#96C852">
                  <path d="M4.21404199,17.1450304 L4.21404199,11.6486045 L9.64494106,11.6486045 C10.8098469,11.6486045 11.6320747,11.9075068 12.1106252,12.4248116 C12.5891757,12.9421164 12.828451,13.5943702 12.828451,14.3810734 C12.828451,15.1882688 12.594171,15.8510187 12.1261106,16.3688233 C11.6580503,16.8861281 10.8827784,17.1450304 9.8012942,17.1450304 L4.21404199,17.1450304 Z M12.0796543,0 L12.0796543,5.33998499 C12.0796543,6.33960779 11.8503696,7.05233884 11.3927994,7.47967759 C10.9347296,7.90601671 10.0820305,8.11943618 8.83370301,8.11943618 L4.21404199,8.11943618 L4.21404199,0 L0,0 L0,20.7366751 L10.51912,20.7366751 C11.4757215,20.7366751 12.3449051,20.5857321 13.1251723,20.2843458 C13.9054394,19.9824597 14.5763093,19.5671165 15.1382815,19.0368166 C15.7002536,18.5070165 16.1318483,17.8727558 16.4335649,17.1345344 C16.734782,16.396313 16.8861398,15.601113 16.8861398,14.7494344 C16.8861398,13.6263582 16.6208889,12.6337327 16.0903872,11.7710583 C15.559386,10.9083838 14.7951038,10.3006131 13.7960422,9.94724647 C14.7116822,9.65535661 15.3615718,9.20702579 15.74671,8.60225399 C16.1318483,7.99698239 16.3241676,7.0898247 16.3241676,5.88078092 L16.3241676,0 L12.0796543,0 Z" id="path28" style="fill: rgb(143, 226, 17);"></path>
                </g>
                <g id="g30" transform="matrix(1, 0, 0, 1, 142.800003, 32.232437)" fill="#96C852">
                  <polygon id="path32" points="0 0 0 20.705187 15.2316937 20.705187 15.2316937 17.1140421 4.21354246 17.1140421 4.21354246 12.6792156 14.3580143 12.6792156 14.3580143 9.02559425 4.21354246 9.02559425 4.21354246 3.68510945 15.7312246 3.68510945 15.7312246 0" style="fill: rgb(143, 226, 17);"></polygon>
                </g>
                <g id="g34" transform="matrix(1, 0, 0, 1, 161.5, 32.232288)" fill="#96C852">
                  <path d="M9.86323602,16.083431 L9.83226511,16.083431 L7.1787574,7.80755387 L12.4538029,7.80755387 L9.86323602,16.083431 Z M15.0133988,0 L13.7021304,4.27838558 L6.05531259,4.27838558 L4.58769104,0 L-2.83797384e-14,0 L7.39705237,20.7366751 L12.4223324,20.7366751 L19.7259725,0 L15.0133988,0 Z" id="path36" style="fill: rgb(143, 226, 17);"></path>
                </g>
                <g id="g38" transform="matrix(1, 0, 0, 1, 184.199997, 32.232437)" fill="#96C852">
                  <polygon id="path40" points="16.0429318 0 16.0429318 14.2096381 12.172567 0 7.86511275 0 4.02571887 14.1471617 4.02571887 0 0 0 0 20.7366751 6.36701982 20.7366751 10.1125019 5.52791408 13.857984 20.7366751 20.1006206 20.7366751 20.1006206 0" style="fill: rgb(143, 226, 17);"></polygon>
                </g>
                <g id="g42" transform="matrix(1, 0, 0, 1, 207.300003, 32.232437)" fill="#96C852">
                  <polygon id="path44" points="-2.837972e-14 0 -2.837972e-14 20.7366751 4.33842516 20.7366751 4.33842516 3.77907399 14.6072802 3.77907399 14.6072802 0" style="fill: rgb(143, 226, 17);"></polygon>
                </g>
                <polygon id="path46" points="224.9 52.969 229.238 52.969 229.238 32.233 224.9 32.233" style="fill: rgb(143, 226, 17);"></polygon>
                <g id="g48" transform="matrix(1, 0, 0, 1, 232.199997, 32.232437)" fill="#96C852">
                  <polygon id="path50" points="12.8908923 0 4.0262184 13.9287441 4.0262184 0 0 0 0 20.7366751 4.58819057 20.7366751 12.828451 7.40170701 12.828451 20.7366751 16.8856403 20.7366751 16.8856403 0" style="fill: rgb(143, 226, 17);"></polygon>
                </g>
                <g id="g52" transform="matrix(1, 0, 0, 1, 252.100006, 32.232437)" fill="#96C852">
                  <polygon id="path54" points="0 0 0 20.705187 15.2311942 20.705187 15.2311942 17.1140421 4.21354246 17.1140421 4.21354246 12.6792156 14.3575148 12.6792156 14.3575148 9.02559425 4.21354246 9.02559425 4.21354246 3.68510945 15.730725 3.68510945 15.730725 0" style="fill: rgb(143, 226, 17);"></polygon>
                </g>
                <g id="g56" transform="matrix(1, 0, 0, 1, 84.699997, 10.398326)" fill="#FFFFFF">
                  <path d="M9.49158509,11.8740194 C9.4106611,12.696709 9.11194167,13.3089779 8.59542681,13.7123257 C8.07891194,14.1146739 7.30413964,14.3165977 6.2711099,14.3165977 C4.36589936,14.3165977 3.41379362,13.663844 3.41379362,12.3578368 C3.41379362,11.8900134 3.61110829,11.4991609 4.0067367,11.1847795 C4.40236511,10.8703981 5.03577019,10.6084969 5.907951,10.399076 C6.94098073,10.1571673 7.83663949,9.9312525 8.59542681,9.72183153 C9.35421412,9.51191074 10.048562,9.27050183 10.6779708,8.99610538 C11.0326377,8.85116007 11.3678229,8.66972853 11.6830268,8.45231057 C11.9977312,8.23489261 12.2639811,7.96449465 12.4817766,7.6421163 C12.699572,7.31973794 12.8734087,6.93238411 13.0027872,6.48155423 C13.1316662,6.03022453 13.1966052,5.48143162 13.1966052,4.83717472 C13.1966052,4.06296686 13.0352567,3.37772544 12.7130593,2.78145044 C12.3903624,2.18467563 11.9552711,1.68086574 11.4077853,1.27002077 C10.8598,0.858675984 10.2154053,0.544294614 9.47410152,0.326376844 C8.73279778,0.108958885 7.95153158,0 7.12980338,0 C4.79349774,0 3.03714738,0.455827996 1.86125183,1.36698418 C0.684856753,2.27714074 0.0639399449,3.61913434 0,5.392965 L3.2384583,5.392965 C3.25444329,4.57127506 3.58912894,3.92202005 4.24151619,3.44669941 C4.89390344,2.97087896 5.71213492,2.73296873 6.69471204,2.73296873 C7.75821315,2.73296873 8.56395636,2.92639574 9.11194167,3.31225014 C9.65942745,3.69860435 9.93366987,4.22140708 9.93366987,4.88165794 C9.93366987,5.13906081 9.90120037,5.37647122 9.83626136,5.59388918 C9.77182188,5.81080733 9.64693918,6.00823283 9.46111371,6.18516607 C9.27528825,6.3620993 9.02102706,6.51904008 8.69783062,6.6559884 C8.37463418,6.79293673 7.95452876,6.91788958 7.43751437,7.03034714 C6.21016714,7.28775001 5.14816462,7.54915137 4.2515068,7.81505104 C3.35484898,8.08045089 2.6160429,8.41032642 2.0340895,8.80467761 C1.45263562,9.19852899 1.02453771,9.67734831 0.74979576,10.2406358 C0.47555334,10.804423 0.338182365,11.5206528 0.338182365,12.3898248 C0.338182365,13.0500756 0.459068823,13.669342 0.70134127,14.2491232 C0.943613717,14.8284046 1.31476512,15.3312149 1.815295,15.7580538 C2.31582488,16.1838931 2.93324497,16.5222654 3.66755527,16.7716713 C4.40236511,17.0210772 5.27005014,17.1460301 6.2711099,17.1460301 C7.23920063,17.1460301 8.11088191,17.0210772 8.88615374,16.7711715 C9.66092604,16.520766 10.3268006,16.1663997 10.8837775,15.707073 C11.4407544,15.2477464 11.8728485,14.6914563 12.1795604,14.0387026 C12.4862724,13.3854491 12.6551138,12.6637214 12.6875833,11.8740194 L9.49158509,11.8740194 Z" id="path58"></path>
                </g>
                <g id="g60" transform="matrix(1, 0, 0, 1, 100.900002, 10.967045)" fill="#FFFFFF">
                  <polygon id="path62" points="0 0 0 16.0329501 11.7944222 16.0329501 11.7944222 13.2524993 3.26293531 13.2524993 3.26293531 9.81829513 11.1180574 9.81829513 11.1180574 6.9888628 3.26293531 6.9888628 3.26293531 2.85342328 12.1815586 2.85342328 12.1815586 0"></polygon>
                </g>
                <g id="g64" transform="matrix(1, 0, 0, 1, 116.099998, 10.955066)" fill="#FFFFFF">
                  <path d="M3.26293531,13.2759904 L3.26293531,9.01959651 L7.46848528,9.01959651 C8.37113747,9.01959651 9.0070402,9.22052069 9.37769207,9.62136944 C9.74834394,10.0217184 9.93366987,10.5270277 9.93366987,11.1362978 C9.93366987,11.761062 9.75234018,12.2738685 9.39018034,12.6752171 C9.02752096,13.075566 8.42708492,13.2759904 7.58937174,13.2759904 L3.26293531,13.2759904 Z M9.35371459,0 L9.35371459,4.13493971 C9.35371459,4.90914756 9.17638115,5.46093935 8.8222138,5.79131468 C8.46754692,6.12218983 7.80716717,6.2876274 6.84007551,6.2876274 L3.26293531,6.2876274 L3.26293531,0 L0,0 L0,16.056941 L8.14485001,16.056941 C8.88615374,16.056941 9.55902176,15.940485 10.1629545,15.7065732 C10.7673868,15.4731613 11.2868989,15.1512828 11.7224897,14.7414374 C12.1575811,14.3305924 12.4917672,13.8397776 12.7250481,13.2679934 C12.9588285,12.696709 13.0762183,12.0804415 13.0762183,11.4206905 C13.0762183,10.5515185 12.869912,9.78280852 12.4592977,9.11506049 C12.0486834,8.44681265 11.4562398,7.97599031 10.6829661,7.70259347 C11.3918003,7.47617891 11.8953274,7.1293098 12.1935473,6.66098652 C12.4917672,6.19266324 12.6406274,5.48992841 12.6406274,4.55378166 L12.6406274,0 L9.35371459,0 Z" id="path66"></path>
                </g>
                <g id="g68" transform="matrix(1, 0, 0, 1, 131.199997, 10.954816)" fill="#FFFFFF">
                  <polygon id="path70" points="5.4378925 0 2.58579418e-14 16.0574408 3.57664067 16.0574408 7.08134889 4.78819321 10.5620796 16.0574408 14.0428104 16.0574408 8.60441836 0"></polygon>
                </g>
                <g id="g72" transform="matrix(1, 0, 0, 1, 148.199997, 10.954816)" fill="#FFFFFF">
                  <polygon id="path74" points="0 0 0 16.0329501 11.7944222 16.0329501 11.7944222 13.2524993 3.26243578 13.2524993 3.26243578 9.81829513 11.1175579 9.81829513 11.1175579 6.9888628 3.26243578 6.9888628 3.26243578 2.85342328 12.181059 2.85342328 12.181059 0"></polygon>
                </g>
                <g id="g76" transform="matrix(1, 0, 0, 1, 163.399994, 10.955066)" fill="#FFFFFF">
                  <path d="M3.26243578,13.2759904 L3.26243578,9.01959651 L7.46798575,9.01959651 C8.37063794,9.01959651 9.00654067,9.22052069 9.37719254,9.62136944 C9.74784441,10.0217184 9.93317034,10.5270277 9.93317034,11.1362978 C9.93317034,11.761062 9.75184065,12.2738685 9.38968081,12.6752171 C9.02702143,13.075566 8.42658539,13.2759904 7.5888722,13.2759904 L3.26243578,13.2759904 Z M9.35321506,0 L9.35321506,4.13493971 C9.35321506,4.90914756 9.17588162,5.46093935 8.82171427,5.79131468 C8.46704738,6.12218983 7.80666764,6.2876274 6.83957598,6.2876274 L3.26243578,6.2876274 L3.26243578,0 L0,0 L0,16.056941 L8.14435048,16.056941 C8.88565421,16.056941 9.55852222,15.940485 10.162455,15.7065732 C10.7668873,15.4731613 11.2863993,15.1512828 11.7219902,14.7414374 C12.1570815,14.3305924 12.4912677,13.8397776 12.7245486,13.2679934 C12.958329,12.696709 13.0757187,12.0804415 13.0757187,11.4206905 C13.0757187,10.5515185 12.8694125,9.78280852 12.4587982,9.11506049 C12.0481838,8.44681265 11.4557403,7.97599031 10.6824666,7.70259347 C11.3913008,7.47617891 11.8948279,7.1293098 12.1930478,6.66098652 C12.4912677,6.19266324 12.6401278,5.48992841 12.6401278,4.55378166 L12.6401278,0 L9.35321506,0 Z" id="path78"></path>
                </g>
                <g id="g80" transform="matrix(1, 0, 0, 1, 179.5, 10.398326)" fill="#FFFFFF">
                  <path d="M9.49208463,11.8740194 C9.41116063,12.696709 9.1124412,13.3089779 8.59592634,13.7123257 C8.07941147,14.1146739 7.30413964,14.3165977 6.27160943,14.3165977 C4.36589936,14.3165977 3.41379362,13.663844 3.41379362,12.3578368 C3.41379362,11.8900134 3.61160782,11.4991609 4.00723623,11.1847795 C4.40286464,10.8703981 5.03626972,10.6084969 5.907951,10.399076 C6.94098073,10.1571673 7.83713902,9.9312525 8.59592634,9.72183153 C9.35471365,9.51191074 10.048562,9.27050183 10.6779708,8.99610538 C11.0331372,8.85116007 11.3683224,8.66972853 11.6830268,8.45231057 C11.9982307,8.23489261 12.2644807,7.96449465 12.4817766,7.6421163 C12.7000715,7.31973794 12.8739083,6.93238411 13.0027872,6.48155423 C13.1321657,6.03022453 13.1966052,5.48143162 13.1966052,4.83717472 C13.1966052,4.06296686 13.0357563,3.37772544 12.7130593,2.78145044 C12.390862,2.18467563 11.9557706,1.68086574 11.4082848,1.27002077 C10.8598,0.858675984 10.2154053,0.544294614 9.47460105,0.326376844 C8.73279778,0.108958885 7.95203111,0 7.12980338,0 C4.79399727,0 3.03714738,0.455827996 1.86125183,1.36698418 C0.684856753,2.27714074 0.0644394757,3.61913434 0,5.392965 L3.2384583,5.392965 C3.25494282,4.57127506 3.58962847,3.92202005 4.24151619,3.44669941 C4.89440297,2.97087896 5.71213492,2.73296873 6.69471204,2.73296873 C7.75821315,2.73296873 8.56445589,2.92639574 9.11194167,3.31225014 C9.65942745,3.69860435 9.93366987,4.22140708 9.93366987,4.88165794 C9.93366987,5.13906081 9.90120037,5.37647122 9.83626136,5.59388918 C9.77232142,5.81080733 9.64743871,6.00823283 9.46111371,6.18516607 C9.27528825,6.3620993 9.02102706,6.51904008 8.69783062,6.6559884 C8.37513371,6.79293673 7.9550283,6.91788958 7.4380139,7.03034714 C6.21016714,7.28775001 5.14816462,7.54915137 4.25200633,7.81505104 C3.35534851,8.08045089 2.6160429,8.41032642 2.03458903,8.80467761 C1.45263562,9.19852899 1.02503724,9.67734831 0.75029529,10.2406358 C0.47555334,10.804423 0.338681895,11.5206528 0.338681895,12.3898248 C0.338681895,13.0500756 0.459568354,13.669342 0.701840801,14.2491232 C0.944113248,14.8284046 1.31526465,15.3312149 1.81579453,15.7580538 C2.31582488,16.1838931 2.93324497,16.5222654 3.66805481,16.7716713 C4.40286464,17.0210772 5.27054967,17.1460301 6.27160943,17.1460301 C7.23970016,17.1460301 8.11088191,17.0210772 8.88615374,16.7711715 C9.66142557,16.520766 10.3268006,16.1663997 10.8837775,15.707073 C11.4407544,15.2477464 11.873348,14.6914563 12.1795604,14.0387026 C12.4862724,13.3854491 12.6556133,12.6637214 12.6875833,11.8740194 L9.49208463,11.8740194 Z" id="path82"></path>
                </g>
                <g id="g84" transform="translate(26.920965, 0.000000)" fill="#939598">
                  <path id="path86" d="M 12.984 0 L 38.705 11.126 C 37.21 12.432 2.235 13.828 0 12.993 L 12.984 0 Z"></path>
                </g>
                <g id="g88" transform="translate(26.921164, 11.125852)" fill="#808285">
                  <path id="path90" d="M 0 1.867 L 38.705 0 C 38.549 1.523 28.178 15.365 25.715 12.997 L 0 1.867 Z" style="fill: rgb(124, 126, 128);"></path>
                </g>
                <g id="g92" transform="translate(63.759914, 11.125652)" fill="#808285">
                  <polygon id="path94" points="-0.86 20.603 1.865 -0.001 12.986 25.734 0 38.727" style="fill: rgb(124, 126, 128);"></polygon>
                </g>
                <g id="g96" transform="translate(52.636012, 11.125852)" fill="#939598">
                  <path id="path98" d="M 1.987 17.59 L 0 12.997 L 12.989 0 L 11.964 21.264 L 11.124 38.727 C 8.196 37.329 0.156 18.793 1.987 17.59 Z"></path>
                </g>
                <g id="g100" transform="translate(32.034861, 28.716214)" fill="#6D6F71">
                  <path id="path102" d="M 31.725 21.137 L 0 9.461 L 22.588 0 Z" style="fill: rgb(107, 109, 110);"></path>
                </g>
                <g id="g104" transform="translate(13.007433, 14.158357)" fill="#73AE22">
                  <path id="path106" d="M 31.721 11.678 L 9.133 21.138 C 7.36 22.33 -0.472 1.583 -0.018 -0.006 L 31.721 11.678 Z" style="fill: rgb(100, 141, 38);"></path>
                </g>
                <g id="g108" transform="translate(-0.000000, 14.152610)" fill="#A7EF45">
                  <path id="path110" d="M 0.017 13.005 L 0 12.997 L 0.01 12.987 L 12.989 0 L 12.996 0.025 L 13.402 1.071 C 14.431 2.47 13.624 37.014 11.134 38.717 L 0.017 13.005 Z" style="fill: rgb(143, 226, 17);"></path>
                </g>
                <g id="g112" transform="translate(11.133992, 15.195916)" fill="#8ABB48">
                  <path id="path114" d="M 1.854 -1.045 L 11.006 20.1 L 12.986 24.681 C 17.409 27.816 4.17 39.22 0 37.674 L 1.854 -1.045 Z" style="fill: rgb(126, 187, 34);"></path>
                </g>
                <g id="g116" transform="translate(11.133743, 39.876553)" fill="#A7EF45">
                  <path id="path118" d="M 12.986 0 L 38.705 11.127 C 34.75 14.954 8.905 16.452 0 12.994 L 12.986 0 Z" style="fill: rgb(143, 226, 17);"></path>
                </g>
                <g id="g120" transform="translate(11.133992, 51.003404)" fill="#8ABB48">
                  <polygon id="path122" points="0 1.86679558 38.7041474 -2.21960849e-16 25.715347 12.9965958" style="fill: rgb(126, 187, 34);"></polygon>
                </g>
              </g>
            </g>
          </g>
        </g>
      </g>
    </g>
  </g>
</svg>